<svg width="47" height="45" viewBox="0 0 47 45" fill="none" xmlns="http://www.w3.org/2000/svg">
<path d="M3.41551 26.8459C4.87557 26.7956 6 26.5 6 26.5C6 26.5 4.87557 26.2044 3.41551 26.1533C3.35522 24.9372 3.0005 24 3.0005 24C3.0005 24 2.64478 24.9372 2.58449 26.1533C1.12343 26.2044 0 26.5 0 26.5C0 26.5 1.12343 26.7956 2.58449 26.8459C2.64478 28.0637 3.0005 29 3.0005 29C3.0005 29 3.35622 28.0637 3.41551 26.8459Z" fill="#CDA274"/>
<path d="M9.55418 30.5538C11.5009 30.4732 13 30 13 30C13 30 11.5009 29.5268 9.55418 29.4462C9.47368 27.4993 8.99951 26 8.99951 26C8.99951 26 8.52632 27.4993 8.44582 29.4462C6.49908 29.5268 5 30 5 30C5 30 6.49908 30.4732 8.44582 30.5538C8.52632 32.5007 8.99951 34 8.99951 34C8.99951 34 9.47368 32.5007 9.55418 30.5538V30.5538Z" fill="#CDA274"/>
<path d="M21.2767 16.2767C22.2499 16.2367 23 16 23 16C23 16 22.2509 15.7633 21.2767 15.7223C21.2367 14.7491 21 14 21 14C21 14 20.7633 14.7501 20.7233 15.7223C19.7491 15.7633 19 16 19 16C19 16 19.7491 16.2367 20.7233 16.2767C20.7633 17.2509 21 18 21 18C21 18 21.2367 17.2509 21.2767 16.2767Z" fill="#CDA274"/>
<path d="M24.8464 18.846C26.0634 18.7959 27 18.5 27 18.5C27 18.5 26.0634 18.2041 24.8464 18.154C24.7963 16.9368 24.4995 16 24.4995 16C24.4995 16 24.2037 16.9377 24.1536 18.154C22.9366 18.2041 22 18.5 22 18.5C22 18.5 22.9366 18.7959 24.1536 18.846C24.2037 20.0632 24.4995 21 24.4995 21C24.4995 21 24.7953 20.0632 24.8464 18.846Z" fill="#CDA274"/>
<path d="M9.44801 11.0439C9.07747 11.1493 8.70693 11.2647 8.33966 11.3912C8.66976 11.2065 9.00751 11.0309 9.35292 10.8613L7.86528 8C4.64626 11.3922 2.61866 15.5862 2 20C3.55978 16.7172 6.30004 13.8881 10 12.1057L9.44801 11.0439V11.0439Z" fill="#CDA274"/>
<path d="M15.1311 2.26817C14.0208 2.81545 12.9765 3.44462 12 4.1457L13.7216 8.90544C21.8098 6.91506 30.4512 10.8199 34.2379 18.7245C38.6053 27.8405 34.861 38.8231 25.876 43.2533C25.3504 43.5129 24.8179 43.7436 24.2814 43.9474C29.1105 40.9653 32.1373 35.9639 32.8096 30.561C31.6097 34.8393 28.6883 38.6004 24.435 40.6986C20.8766 42.4533 16.9925 42.7449 13.443 41.8072C18.9316 45.1308 25.7392 45.9927 32.0724 43.7616C40.6084 38.0002 43.8459 26.5832 39.2402 16.9688C34.5076 7.09282 23.1878 2.64368 13.2521 6.41771C13.8151 6.06917 14.3988 5.7456 15.0042 5.44699C25.3406 0.349693 37.7923 4.71895 42.8153 15.2062C47.6582 25.3159 43.8291 37.4189 34.2881 42.8428C34.3639 42.8059 34.4397 42.7699 34.5155 42.733C45.5291 37.3021 50.117 23.8408 44.7643 12.6675C39.4115 1.49319 26.1448 -3.16269 15.1311 2.26817Z" fill="#CDA274"/>
<path d="M7.87422 3.0884C6.93439 3.48161 6.71857 5.07314 7.39187 6.64403L16.7027 25.9213L15.3322 26.4924C14.82 26.7048 14.5803 27.2887 14.7961 27.7949C14.9135 28.0702 15.1432 28.2658 15.4098 28.3523C16.7484 32.8526 13.2914 38.6722 12.1049 40.4839C13.0478 40.7287 14.0015 40.886 14.9553 40.9587C16.814 38.5906 17.8295 35.5805 17.6345 32.4063C17.7101 32.7406 17.7777 33.0787 17.8275 33.4238C18.2153 36.1242 17.7101 38.7449 16.5395 41C18.0393 40.9666 19.5231 40.7257 20.9483 40.2863C21.3899 38.7725 21.553 37.1603 21.3859 35.5147C21.4754 35.845 21.555 36.1812 21.6176 36.5243C21.8354 37.7019 21.8802 38.8708 21.7718 40.0071C23.004 39.553 24.1825 38.9484 25.2795 38.1984C25.3421 35.3741 24.462 32.5253 22.6072 30.1542C22.8608 30.3882 23.1084 30.631 23.3461 30.8885C25.0557 32.7465 26.1 34.9681 26.5027 37.2714C27.4167 36.5075 28.2561 35.6326 29 34.6506C28.7205 31.5029 23.6514 27.6789 20.9374 26.0274C21.0507 25.7837 21.0647 25.4956 20.9503 25.2292C20.7345 24.723 20.1437 24.4861 19.6325 24.6984L18.2362 25.2803L10.7932 5.2206C10.1209 3.6507 8.81305 2.69519 7.87521 3.0884H7.87422Z" fill="#292929"/>
</svg>
