<svg xmlns="http://www.w3.org/2000/svg" width="178" height="45" fill="none" xmlns:v="https://vecta.io/nano"><path d="M3.416 26.846C4.876 26.796 6 26.5 6 26.5s-1.124-.296-2.584-.347C3.355 24.937 3.001 24 3.001 24s-.356.937-.416 2.153C1.123 26.204 0 26.5 0 26.5s1.123.296 2.584.346C2.644 28.064 3 29 3 29s.356-.936.415-2.154zm6.138 3.708C11.501 30.473 13 30 13 30s-1.499-.473-3.446-.554C9.474 27.499 9 26 9 26s-.473 1.499-.554 3.446C6.499 29.527 5 30 5 30s1.499.473 3.446.554A14.66 14.66 0 0 0 9 34s.474-1.499.555-3.446h0zm11.723-14.277C22.25 16.237 23 16 23 16s-.749-.237-1.723-.278C21.237 14.749 21 14 21 14s-.237.75-.277 1.722C19.749 15.763 19 16 19 16s.749.237 1.723.277C20.763 17.251 21 18 21 18s.237-.749.277-1.723zm3.569 2.569C26.063 18.796 27 18.5 27 18.5s-.937-.296-2.154-.346C24.796 16.937 24.5 16 24.5 16s-.296.938-.346 2.154c-1.217.05-2.154.346-2.154.346s.937.296 2.154.346A9.18 9.18 0 0 0 24.5 21s.296-.937.347-2.154zM9.448 11.044l-1.108.347 1.013-.53L7.865 8C4.646 11.392 2.619 15.586 2 20c1.56-3.283 4.3-6.112 8-7.894l-.552-1.062h0zm5.683-8.776A22.17 22.17 0 0 0 12 4.146l1.722 4.76c8.088-1.99 16.73 1.914 20.516 9.819 4.367 9.116.623 20.099-8.362 24.529a18.17 18.17 0 0 1-1.595.694c4.829-2.982 7.856-7.983 8.528-13.386-1.2 4.278-4.121 8.039-8.375 10.138a15.69 15.69 0 0 1-10.992 1.109c5.489 3.324 12.296 4.185 18.629 1.954C40.608 38 43.846 26.583 39.24 16.969 34.508 7.093 23.188 2.644 13.252 6.418a20.88 20.88 0 0 1 1.752-.971C25.341.35 37.792 4.719 42.815 15.206c4.843 10.11 1.014 22.213-8.527 27.637l.227-.11c11.014-5.431 15.601-18.892 10.249-30.065S26.145-3.163 15.131 2.268z" fill="#cda274"/><path d="M7.874 3.088c-.94.393-1.156 1.985-.482 3.556l9.311 19.277-1.37.571a.99.99 0 0 0-.536 1.302 1 1 0 0 0 .614.557c1.339 4.5-2.118 10.32-3.305 12.132.943.245 1.897.402 2.85.475 1.859-2.368 2.874-5.378 2.679-8.552a13.07 13.07 0 0 1 .193 1.017c.388 2.7-.117 5.321-1.288 7.576a16.19 16.19 0 0 0 4.409-.714c.442-1.514.605-3.126.438-4.772.09.33.169.666.232 1.01a12.56 12.56 0 0 1 .154 3.483c1.232-.454 2.411-1.059 3.508-1.809a12.57 12.57 0 0 0-2.672-8.044 12.98 12.98 0 0 1 .739.734 12.6 12.6 0 0 1 3.157 6.383c.914-.764 1.753-1.639 2.497-2.621-.279-3.148-5.349-6.972-8.063-8.623.113-.244.127-.532.013-.798-.216-.506-.807-.743-1.318-.531l-1.396.582-7.443-20.06c-.672-1.57-1.98-2.525-2.918-2.132h-.001z" fill="#292929"/><path d="M58.104 36.288c-.661 0-1.216-.224-1.664-.672l7.968-11.168-7.552-10.592c.427-.363.949-.544 1.568-.544a2.82 2.82 0 0 1 1.216.256c.384.171.683.405.896.704l5.376 7.712-.736.992.224.16 6.208-8.864c.213-.299.501-.533.864-.704.384-.171.8-.256 1.248-.256.277 0 .555.053.832.16.299.085.544.213.736.384l-7.552 10.592 7.968 11.168c-.448.448-1.003.672-1.664.672-.384 0-.747-.096-1.088-.288-.32-.171-.597-.416-.832-.736l-6.048-8.576-6.048 8.576c-.235.32-.523.565-.864.736-.32.192-.672.288-1.056.288zm23.404-18.976c-.597 0-1.099-.192-1.504-.576a1.9 1.9 0 0 1-.608-1.44 1.8 1.8 0 0 1 .608-1.408c.405-.384.907-.576 1.504-.576.576 0 1.067.192 1.472.576.405.363.608.832.608 1.408a1.9 1.9 0 0 1-.608 1.44c-.405.384-.896.576-1.472.576zM80.1 21.76c0-.704.224-1.216.672-1.536.469-.341 1.173-.512 2.112-.512V34.24c0 .704-.235 1.227-.704 1.568-.448.32-1.141.48-2.08.48V21.76zm7.983.32c0-1.579.885-2.368 2.656-2.368v2.048c-.277.299-.501.587-.672.864l.128.128c.683-.96 1.408-1.707 2.176-2.24s1.653-.8 2.656-.8c1.941 0 3.275.928 4 2.784 1.216-1.856 2.837-2.784 4.864-2.784 1.514 0 2.677.512 3.488 1.536.832 1.003 1.248 2.325 1.248 3.968v9.024c0 .704-.235 1.227-.704 1.568-.448.32-1.131.48-2.048.48V25.376c0-1.024-.214-1.824-.64-2.4s-1.099-.864-2.016-.864a3.41 3.41 0 0 0-2.464.992c-.683.64-1.024 1.504-1.024 2.592v8.544c0 .704-.224 1.227-.672 1.568-.448.32-1.131.48-2.048.48V25.376c0-1.024-.213-1.824-.64-2.4s-1.099-.864-2.016-.864c-.981 0-1.813.352-2.496 1.056s-1.024 1.568-1.024 2.592v8.48c0 .704-.235 1.227-.704 1.568-.448.32-1.131.48-2.048.48V22.08zm29-5.824h-7.808c0-1.771.832-2.656 2.496-2.656h16.096c0 1.771-.832 2.656-2.496 2.656h-5.28v17.536c0 .811-.256 1.429-.768 1.856s-1.258.64-2.24.64V16.256zm14.999 20.032c-1.834 0-3.317-.491-4.448-1.472-1.109-.981-1.664-2.272-1.664-3.872 0-1.621.587-2.923 1.76-3.904 1.174-1.003 2.72-1.504 4.64-1.504 2.048 0 3.734.725 5.056 2.176l.128-.128-.8-.8V25.44c0-1.088-.341-1.931-1.024-2.528s-1.653-.896-2.912-.896c-2.24 0-3.84.885-4.8 2.656-.341-.171-.629-.395-.864-.672-.213-.299-.32-.597-.32-.896 0-.576.288-1.12.864-1.632.576-.533 1.334-.96 2.272-1.28a9.45 9.45 0 0 1 3.008-.48c2.027 0 3.616.501 4.768 1.504 1.174 1.003 1.76 2.389 1.76 4.16v8.768c0 .747-.213 1.291-.64 1.632s-1.098.512-2.016.512v-1.504l.736-.832-.128-.128c-1.386 1.643-3.178 2.464-5.376 2.464zm.48-2.208c1.323 0 2.358-.277 3.104-.832.768-.555 1.152-1.323 1.152-2.304s-.373-1.76-1.12-2.336-1.77-.864-3.072-.864c-1.216 0-2.176.288-2.88.864-.682.555-1.024 1.333-1.024 2.336s.331 1.781.992 2.336c.683.533 1.632.8 2.848.8zm16.594 2.208c-1.088 0-2.112-.16-3.072-.48-.96-.341-1.739-.821-2.336-1.44a3.09 3.09 0 0 1-.864-2.176c0-1.024.619-1.579 1.856-1.664.213 1.195.715 2.08 1.504 2.656.811.555 1.835.832 3.072.832s2.197-.181 2.88-.544 1.024-.917 1.024-1.664c0-.533-.139-.96-.416-1.28-.277-.341-.725-.629-1.344-.864-.597-.256-1.461-.501-2.592-.736-1.408-.32-2.528-.661-3.36-1.024s-1.472-.843-1.92-1.44c-.427-.597-.64-1.387-.64-2.368 0-.832.256-1.579.768-2.24.512-.683 1.216-1.205 2.112-1.568.917-.384 1.952-.576 3.104-.576 1.067 0 2.069.149 3.008.448.96.299 1.728.725 2.304 1.28.597.555.896 1.195.896 1.92 0 .491-.192.885-.576 1.184-.384.277-.917.437-1.6.48-.064-.939-.448-1.675-1.152-2.208-.683-.555-1.643-.832-2.88-.832-1.024 0-1.835.192-2.432.576s-.896.896-.896 1.536c0 .683.277 1.195.832 1.536.576.32 1.547.629 2.912.928 2.24.448 3.883 1.067 4.928 1.856 1.067.768 1.6 1.867 1.6 3.296 0 1.451-.587 2.581-1.76 3.392-1.173.789-2.827 1.184-4.96 1.184zm10.396-20.608c0-.768.234-1.355.704-1.76s1.162-.608 2.08-.608v8.416c-.299.341-.534.64-.704.896l.128.128c.661-.896 1.493-1.621 2.496-2.176 1.002-.576 2.09-.864 3.264-.864 1.728 0 3.093.512 4.096 1.536s1.504 2.347 1.504 3.968v9.024c0 .704-.235 1.227-.704 1.568-.448.32-1.142.48-2.08.48V25.504c0-1.024-.288-1.835-.864-2.432s-1.451-.896-2.624-.896c-.79 0-1.536.171-2.24.512-.683.32-1.238.768-1.664 1.344a3.02 3.02 0 0 0-.608 1.824v8.384c0 .704-.235 1.227-.704 1.568-.448.32-1.142.48-2.08.48V15.68z" fill="#000"/></svg>